<?xml version="1.0" standalone="no"?>
<!DOCTYPE svg PUBLIC "-//W3C//DTD SVG 20010904//EN"
 "http://www.w3.org/TR/2001/REC-SVG-20010904/DTD/svg10.dtd">
<svg version="1.0" xmlns="http://www.w3.org/2000/svg"
 width="204.000000pt" height="204.000000pt" viewBox="0 0 204.000000 204.000000"
 preserveAspectRatio="xMidYMid meet">
<metadata>
Created by potrace 1.14, written by Peter Selinger 2001-2017
</metadata>
<g transform="translate(0.000000,204.000000) scale(0.100000,-0.100000)"
fill="#000000" stroke="none">
<path d="M99 1916 c-2 -29 -4 -1802 -2 -1811 2 -7 313 -9 911 -8 499 0 910 2
913 2 4 1 6 412 5 914 l-1 912 -912 1 c-639 0 -913 -3 -914 -10z m531 -271 l0
-245 -250 0 -250 0 0 245 0 245 250 0 250 0 0 -245z m149 57 l112 -184 -38
-59 -38 -59 -77 0 -78 0 0 247 c0 135 2 244 4 242 2 -2 54 -87 115 -187z m524
155 c-40 -75 -179 -296 -185 -297 -4 0 -24 26 -44 58 -58 93 -60 93 -114 7
-35 -56 -50 -72 -58 -63 -5 7 -53 84 -105 171 l-95 157 309 0 309 0 -17 -33z
m67 -216 l0 -249 -75 1 -75 0 -40 62 c-22 34 -40 64 -40 68 0 5 71 124 189
315 18 28 35 52 37 52 2 0 4 -112 4 -249z m520 0 l0 -248 -243 -1 -244 0 0
249 0 249 244 0 243 0 0 -249z m-834 -191 l-44 -71 -42 69 -41 70 42 66 42 67
43 -65 44 -65 -44 -71z m103 -23 l23 -37 -51 2 c-28 2 -51 -1 -51 -5 -1 -5 44
-37 99 -73 92 -61 104 -72 158 -155 50 -78 59 -87 64 -67 3 13 4 36 1 52 l-5
28 44 -27 c24 -15 45 -28 46 -29 1 -1 -34 -23 -78 -50 -43 -27 -79 -52 -79
-56 0 -4 36 -28 80 -54 44 -26 80 -49 80 -51 0 -2 -17 -14 -37 -26 -21 -13
-43 -27 -50 -31 -9 -6 -11 6 -10 47 1 30 -1 55 -4 55 -3 0 -34 -45 -69 -101
-61 -95 -69 -103 -159 -162 l-95 -62 51 -3 52 -3 -21 -35 c-11 -19 -24 -36
-28 -39 -5 -3 -25 23 -46 57 -67 112 -55 111 -115 14 l-52 -86 -32 47 -32 48
56 5 56 5 -70 46 c-38 25 -83 53 -100 63 -16 10 -59 61 -95 114 l-65 97 -3
-52 -3 -53 -41 27 c-46 31 -50 25 61 94 l64 40 -87 53 -87 53 48 31 48 32 5
-59 5 -58 69 107 c66 102 73 109 164 168 l95 62 -57 0 -56 0 28 40 c15 21 29
39 32 40 3 0 26 -34 50 -75 25 -41 49 -74 55 -72 5 2 30 38 55 80 48 84 48 83
89 14z m-529 -132 l0 -74 -59 -41 c-33 -22 -64 -40 -70 -40 -12 0 -338 196
-361 217 -12 11 27 13 238 13 l252 0 0 -75z m146 48 c-15 -30 -46 -60 -88 -86
l-28 -17 0 65 0 65 65 0 66 0 -15 -27z m69 17 c-3 -5 -11 -10 -16 -10 -6 0 -7
5 -4 10 3 6 11 10 16 10 6 0 7 -4 4 -10z m373 -21 c12 -18 11 -19 -5 -10 -44
25 -49 31 -28 31 11 0 26 -9 33 -21z m152 -45 l0 -65 -31 18 c-17 10 -46 39
-65 66 l-34 47 65 0 65 0 0 -66z m510 62 c0 -8 -349 -216 -362 -216 -7 0 -36
16 -65 35 l-51 34 1 76 1 75 238 0 c131 0 238 -2 238 -4z m-1548 -156 l138
-84 -48 -32 c-85 -59 -92 -65 -92 -73 0 -4 33 -30 72 -56 56 -37 69 -50 58
-57 -8 -5 -64 -39 -125 -76 -60 -37 -131 -80 -158 -95 l-47 -28 0 312 0 311
33 -20 c17 -10 94 -57 169 -102z m1556 -344 l-3 -154 -145 88 c-209 127 -196
108 -112 166 40 27 72 51 72 54 0 3 -34 27 -76 54 -52 34 -71 52 -62 57 7 4
83 50 168 102 l155 95 3 -154 c1 -85 1 -223 0 -308z m-1205 338 c-9 -15 -19
-21 -21 -15 -4 13 16 41 29 41 5 0 2 -12 -8 -26z m685 -19 c-3 -3 -9 2 -12 12
-6 14 -5 15 5 6 7 -7 10 -15 7 -18z m-789 -124 l63 -39 -38 -24 c-22 -14 -53
-33 -70 -42 l-31 -18 -61 38 c-34 22 -61 42 -60 46 5 13 102 77 118 77 8 0 44
-17 79 -38z m1009 -2 l63 -40 -59 -39 c-33 -22 -65 -40 -71 -40 -17 0 -131 74
-128 83 3 9 109 75 122 76 6 0 38 -18 73 -40z m-968 -311 l0 -78 -242 0 c-133
0 -238 3 -235 6 4 4 86 55 183 114 l177 108 59 -37 58 -36 0 -77z m1086 36
c96 -58 176 -109 179 -115 4 -5 -91 -9 -244 -9 l-250 0 0 75 0 75 61 40 c34
22 66 40 71 40 6 0 88 -48 183 -106z m-1030 49 c-7 -7 -26 7 -26 19 0 6 6 6
15 -2 9 -7 13 -15 11 -17z m673 -14 c-19 -12 -24 -2 -8 17 9 11 14 13 17 4 3
-7 -2 -16 -9 -21z m-624 -70 c11 -10 28 -32 38 -48 l18 -31 -65 0 -66 0 1 65
1 66 27 -17 c14 -9 35 -25 46 -35z m637 -76 c-3 -9 -26 -13 -68 -13 l-63 0 20
35 c12 20 40 48 63 64 l41 29 5 -52 c3 -28 4 -57 2 -63z m-528 12 c16 -12 17
-15 4 -15 -8 0 -21 7 -28 15 -16 19 -1 19 24 0z m366 -10 c-7 -8 -18 -15 -24
-15 -6 0 -2 7 8 15 25 19 32 19 16 0z m-141 -220 c-21 -33 -42 -60 -47 -60
-10 0 -82 100 -82 113 0 3 18 37 41 75 l41 69 42 -69 43 -68 -38 -60z m-439
-65 l0 -250 -245 0 -245 0 0 250 0 250 245 0 245 0 0 -250z m226 183 l41 -66
-95 -156 c-52 -86 -102 -168 -111 -183 -9 -16 -19 -28 -23 -28 -4 0 -7 113 -6
250 l0 250 77 0 76 0 41 -67z m515 -25 c1 -193 -1 -391 -4 -394 -5 -5 -217
349 -217 361 0 6 16 34 35 63 l36 52 74 0 75 0 1 -82z m529 -163 l0 -245 -249
0 -249 0 -1 245 0 245 249 0 250 0 0 -245z m-678 -60 c47 -77 90 -150 97 -162
l12 -23 -310 0 -311 0 100 162 c54 90 102 164 107 165 4 2 25 -24 46 -56 59
-92 58 -92 112 -5 26 41 51 72 55 67 4 -4 45 -71 92 -148z"/>
</g>
</svg>
